# Blender v3.2.1 OBJ File: ''
# www.blender.org
o Cone_Cone.001
v 0.000000 -0.500000 1.000000
v -0.098017 -0.500000 0.995185
v -0.195090 -0.500000 0.980785
v -0.290285 -0.500000 0.956940
v -0.382683 -0.500000 0.923880
v -0.471397 -0.500000 0.881921
v -0.555570 -0.500000 0.831470
v -0.634393 -0.500000 0.773010
v -0.707107 -0.500000 0.707107
v -0.773010 -0.500000 0.634393
v -0.831470 -0.500000 0.555570
v -0.881921 -0.500000 0.471397
v -0.923880 -0.500000 0.382683
v -0.956940 -0.500000 0.290285
v -0.980785 -0.500000 0.195090
v -0.995185 -0.500000 0.098017
v -1.000000 -0.500000 -0.000000
v -0.995185 -0.500000 -0.098017
v -0.980785 -0.500000 -0.195090
v -0.956940 -0.500000 -0.290285
v -0.923880 -0.500000 -0.382683
v -0.881921 -0.500000 -0.471397
v -0.831470 -0.500000 -0.555570
v -0.773010 -0.500000 -0.634393
v -0.707107 -0.500000 -0.707107
v -0.634393 -0.500000 -0.773010
v -0.555570 -0.500000 -0.831470
v -0.471397 -0.500000 -0.881921
v -0.382683 -0.500000 -0.923880
v -0.290285 -0.500000 -0.956940
v -0.195090 -0.500000 -0.980785
v -0.098017 -0.500000 -0.995185
v 0.000000 -0.500000 -1.000000
v 0.098017 -0.500000 -0.995185
v 0.195090 -0.500000 -0.980785
v 0.290285 -0.500000 -0.956940
v 0.382683 -0.500000 -0.923880
v 0.471397 -0.500000 -0.881921
v 0.555570 -0.500000 -0.831470
v 0.634393 -0.500000 -0.773011
v 0.707107 -0.500000 -0.707107
v 0.773010 -0.500000 -0.634393
v 0.831469 -0.500000 -0.555570
v 0.881921 -0.500000 -0.471397
v 0.923880 -0.500000 -0.382684
v 0.956940 -0.500000 -0.290285
v 0.980785 -0.500000 -0.195090
v 0.995185 -0.500000 -0.098017
v 1.000000 -0.500000 0.000000
v 0.995185 -0.500000 0.098017
v 0.980785 -0.500000 0.195090
v 0.956940 -0.500000 0.290285
v 0.923879 -0.500000 0.382684
v 0.881921 -0.500000 0.471397
v 0.831470 -0.500000 0.555570
v 0.773010 -0.500000 0.634393
v 0.707107 -0.500000 0.707107
v 0.634393 -0.500000 0.773011
v 0.555570 -0.500000 0.831470
v 0.471397 -0.500000 0.881921
v 0.382683 -0.500000 0.923880
v 0.290285 -0.500000 0.956940
v 0.195090 -0.500000 0.980785
v 0.098017 -0.500000 0.995185
v 0.000000 0.500000 0.000000
vt 0.650194 0.902088
vt 0.956822 0.500000
vt 0.668095 0.929381
vt 0.687082 0.952540
vt 0.706973 0.971340
vt 0.727575 0.985601
vt 0.748690 0.995185
vt 0.770116 1.000000
vt 0.791645 1.000000
vt 0.813071 0.995185
vt 0.834187 0.985601
vt 0.854789 0.971340
vt 0.874679 0.952540
vt 0.893666 0.929381
vt 0.911567 0.902088
vt 0.928210 0.870922
vt 0.943433 0.836184
vt 0.957091 0.798209
vt 0.969052 0.757361
vt 0.979201 0.714035
vt 0.987440 0.668648
vt 0.993690 0.621637
vt 0.997890 0.573454
vt 1.000000 0.524563
vt 1.000000 0.475437
vt 0.997890 0.426546
vt 0.993690 0.378363
vt 0.987440 0.331352
vt 0.979201 0.285965
vt 0.969052 0.242639
vt 0.957091 0.201791
vt 0.943433 0.163816
vt 0.928210 0.129078
vt 0.911567 0.097912
vt 0.893666 0.070619
vt 0.874679 0.047460
vt 0.854789 0.028660
vt 0.834187 0.014399
vt 0.813071 0.004815
vt 0.791645 0.000000
vt 0.770116 0.000000
vt 0.748691 0.004815
vt 0.727575 0.014399
vt 0.706973 0.028660
vt 0.687082 0.047460
vt 0.668095 0.070618
vt 0.650194 0.097912
vt 0.633552 0.129078
vt 0.618328 0.163816
vt 0.604670 0.201791
vt 0.592709 0.242638
vt 0.582560 0.285965
vt 0.574322 0.331352
vt 0.568072 0.378363
vt 0.563872 0.426546
vt 0.561761 0.475436
vt 0.561761 0.524563
vt 0.563872 0.573454
vt 0.568072 0.621637
vt 0.574322 0.668648
vt 0.582560 0.714035
vt 0.592709 0.757361
vt 0.604670 0.798209
vt 0.618328 0.836184
vt 0.000000 0.475437
vt 0.294680 0.000000
vt 0.561761 0.524563
vt 0.633552 0.870922
vt 0.267082 1.000000
vt 0.239617 0.995185
vt 0.212550 0.985601
vt 0.186141 0.971340
vt 0.160644 0.952540
vt 0.136305 0.929381
vt 0.113359 0.902088
vt 0.092025 0.870922
vt 0.072511 0.836184
vt 0.055003 0.798209
vt 0.016100 0.668648
vt 0.039671 0.757361
vt 0.026661 0.714035
vt 0.008089 0.621637
vt 0.002705 0.573454
vt 0.000000 0.524563
vt 0.002705 0.426546
vt 0.008089 0.378364
vt 0.016100 0.331352
vt 0.026661 0.285965
vt 0.039671 0.242639
vt 0.055003 0.201791
vt 0.072511 0.163816
vt 0.092025 0.129078
vt 0.113358 0.097912
vt 0.186141 0.028660
vt 0.136305 0.070619
vt 0.160644 0.047460
vt 0.212550 0.014399
vt 0.239617 0.004815
vt 0.267082 0.000000
vt 0.322144 0.004815
vt 0.349211 0.014399
vt 0.375621 0.028660
vt 0.401118 0.047460
vt 0.425456 0.070619
vt 0.448403 0.097912
vt 0.469736 0.129078
vt 0.489251 0.163815
vt 0.506758 0.201791
vt 0.545661 0.331352
vt 0.522091 0.242638
vt 0.535100 0.285964
vt 0.553672 0.378363
vt 0.559056 0.426546
vt 0.561761 0.475436
vt 0.559056 0.573454
vt 0.553672 0.621636
vt 0.545661 0.668648
vt 0.535100 0.714035
vt 0.522091 0.757361
vt 0.506758 0.798209
vt 0.489251 0.836184
vt 0.469736 0.870922
vt 0.448403 0.902088
vt 0.425457 0.929381
vt 0.401118 0.952540
vt 0.375621 0.971340
vt 0.349212 0.985601
vt 0.322144 0.995185
vt 0.294680 1.000000
vn -0.0000 -0.3728 0.9279
vn 0.0000 1.0000 0.0000
vn -0.0909 -0.3728 0.9234
vn -0.1810 -0.3728 0.9101
vn -0.2694 -0.3728 0.8879
vn -0.3551 -0.3728 0.8573
vn -0.4374 -0.3728 0.8183
vn -0.5155 -0.3728 0.7715
vn -0.5886 -0.3728 0.7173
vn -0.6561 -0.3728 0.6561
vn -0.7173 -0.3728 0.5887
vn -0.7715 -0.3728 0.5155
vn -0.8183 -0.3728 0.4374
vn -0.8573 -0.3728 0.3551
vn -0.8879 -0.3728 0.2694
vn -0.9101 -0.3728 0.1810
vn -0.9234 -0.3728 0.0909
vn -0.9279 -0.3728 -0.0000
vn -0.9234 -0.3728 -0.0909
vn -0.9101 -0.3728 -0.1810
vn -0.8879 -0.3728 -0.2694
vn -0.8573 -0.3728 -0.3551
vn -0.8183 -0.3728 -0.4374
vn -0.7715 -0.3728 -0.5155
vn -0.7173 -0.3728 -0.5887
vn -0.6561 -0.3728 -0.6561
vn -0.5887 -0.3728 -0.7173
vn -0.5155 -0.3728 -0.7715
vn -0.4374 -0.3728 -0.8183
vn -0.3551 -0.3728 -0.8573
vn -0.2694 -0.3728 -0.8879
vn -0.1810 -0.3728 -0.9101
vn -0.0909 -0.3728 -0.9234
vn 0.0000 -0.3728 -0.9279
vn 0.0909 -0.3728 -0.9234
vn 0.1810 -0.3728 -0.9101
vn 0.2694 -0.3728 -0.8879
vn 0.3551 -0.3728 -0.8573
vn 0.4374 -0.3728 -0.8183
vn 0.5155 -0.3728 -0.7715
vn 0.5887 -0.3728 -0.7173
vn 0.6561 -0.3728 -0.6561
vn 0.7173 -0.3728 -0.5887
vn 0.7715 -0.3728 -0.5155
vn 0.8183 -0.3728 -0.4374
vn 0.8573 -0.3728 -0.3551
vn 0.8879 -0.3728 -0.2694
vn 0.9101 -0.3728 -0.1810
vn 0.9234 -0.3728 -0.0909
vn 0.9279 -0.3728 0.0000
vn 0.9234 -0.3728 0.0909
vn 0.9101 -0.3728 0.1810
vn 0.8879 -0.3728 0.2694
vn 0.8573 -0.3728 0.3551
vn 0.8183 -0.3728 0.4374
vn 0.7715 -0.3728 0.5155
vn 0.7173 -0.3728 0.5886
vn 0.6561 -0.3728 0.6561
vn 0.5887 -0.3728 0.7173
vn 0.5155 -0.3728 0.7715
vn 0.4374 -0.3728 0.8183
vn 0.3551 -0.3728 0.8573
vn 0.2694 -0.3728 0.8879
vn 0.1810 -0.3728 0.9101
vn 0.0909 -0.3728 0.9234
s 1
f 1/1/1 65/2/2 2/3/3
f 2/3/3 65/2/2 3/4/4
f 3/4/4 65/2/2 4/5/5
f 4/5/5 65/2/2 5/6/6
f 5/6/6 65/2/2 6/7/7
f 6/7/7 65/2/2 7/8/8
f 7/8/8 65/2/2 8/9/9
f 8/9/9 65/2/2 9/10/10
f 9/10/10 65/2/2 10/11/11
f 10/11/11 65/2/2 11/12/12
f 11/12/12 65/2/2 12/13/13
f 12/13/13 65/2/2 13/14/14
f 13/14/14 65/2/2 14/15/15
f 14/15/15 65/2/2 15/16/16
f 15/16/16 65/2/2 16/17/17
f 16/17/17 65/2/2 17/18/18
f 17/18/18 65/2/2 18/19/19
f 18/19/19 65/2/2 19/20/20
f 19/20/20 65/2/2 20/21/21
f 20/21/21 65/2/2 21/22/22
f 21/22/22 65/2/2 22/23/23
f 22/23/23 65/2/2 23/24/24
f 23/24/24 65/2/2 24/25/25
f 24/25/25 65/2/2 25/26/26
f 25/26/26 65/2/2 26/27/27
f 26/27/27 65/2/2 27/28/28
f 27/28/28 65/2/2 28/29/29
f 28/29/29 65/2/2 29/30/30
f 29/30/30 65/2/2 30/31/31
f 30/31/31 65/2/2 31/32/32
f 31/32/32 65/2/2 32/33/33
f 32/33/33 65/2/2 33/34/34
f 33/34/34 65/2/2 34/35/35
f 34/35/35 65/2/2 35/36/36
f 35/36/36 65/2/2 36/37/37
f 36/37/37 65/2/2 37/38/38
f 37/38/38 65/2/2 38/39/39
f 38/39/39 65/2/2 39/40/40
f 39/40/40 65/2/2 40/41/41
f 40/41/41 65/2/2 41/42/42
f 41/42/42 65/2/2 42/43/43
f 42/43/43 65/2/2 43/44/44
f 43/44/44 65/2/2 44/45/45
f 44/45/45 65/2/2 45/46/46
f 45/46/46 65/2/2 46/47/47
f 46/47/47 65/2/2 47/48/48
f 47/48/48 65/2/2 48/49/49
f 48/49/49 65/2/2 49/50/50
f 49/50/50 65/2/2 50/51/51
f 50/51/51 65/2/2 51/52/52
f 51/52/52 65/2/2 52/53/53
f 52/53/53 65/2/2 53/54/54
f 53/54/54 65/2/2 54/55/55
f 54/55/55 65/2/2 55/56/56
f 55/56/56 65/2/2 56/57/57
f 56/57/57 65/2/2 57/58/58
f 57/58/58 65/2/2 58/59/59
f 58/59/59 65/2/2 59/60/60
f 59/60/60 65/2/2 60/61/61
f 60/61/61 65/2/2 61/62/62
f 61/62/62 65/2/2 62/63/63
f 62/63/63 65/2/2 63/64/64
f 16/65/17 32/66/33 48/67/49
f 63/64/64 65/2/2 64/68/65
f 64/68/65 65/2/2 1/1/1
f 64/69/65 1/70/1 2/71/3
f 2/71/3 3/72/4 64/69/65
f 3/72/4 4/73/5 64/69/65
f 4/73/5 5/74/6 6/75/7
f 6/75/7 7/76/8 4/73/5
f 7/76/8 8/77/9 4/73/5
f 8/77/9 9/78/10 12/79/13
f 9/78/10 10/80/11 12/79/13
f 10/80/11 11/81/12 12/79/13
f 12/79/13 13/82/14 16/65/17
f 13/82/14 14/83/15 16/65/17
f 14/83/15 15/84/16 16/65/17
f 16/65/17 17/85/18 18/86/19
f 18/86/19 19/87/20 16/65/17
f 19/87/20 20/88/21 16/65/17
f 20/88/21 21/89/22 22/90/23
f 22/90/23 23/91/24 24/92/25
f 24/92/25 25/93/26 28/94/29
f 25/93/26 26/95/27 28/94/29
f 26/95/27 27/96/28 28/94/29
f 28/94/29 29/97/30 32/66/33
f 29/97/30 30/98/31 32/66/33
f 30/98/31 31/99/32 32/66/33
f 32/66/33 33/100/34 34/101/35
f 34/101/35 35/102/36 36/103/37
f 36/103/37 37/104/38 38/105/39
f 38/105/39 39/106/40 36/103/37
f 39/106/40 40/107/41 36/103/37
f 40/107/41 41/108/42 44/109/45
f 41/108/42 42/110/43 44/109/45
f 42/110/43 43/111/44 44/109/45
f 44/109/45 45/112/46 46/113/47
f 46/113/47 47/114/48 48/67/49
f 48/67/49 49/115/50 50/116/51
f 50/116/51 51/117/52 52/118/53
f 52/118/53 53/119/54 54/120/55
f 54/120/55 55/121/56 52/118/53
f 55/121/56 56/122/57 52/118/53
f 56/122/57 57/123/58 58/124/59
f 58/124/59 59/125/60 60/126/61
f 60/126/61 61/127/62 62/128/63
f 62/128/63 63/129/64 64/69/65
f 20/88/21 22/90/23 16/65/17
f 22/90/23 24/92/25 16/65/17
f 32/66/33 34/101/35 36/103/37
f 44/109/45 46/113/47 40/107/41
f 46/113/47 48/67/49 40/107/41
f 48/67/49 50/116/51 56/122/57
f 50/116/51 52/118/53 56/122/57
f 56/122/57 58/124/59 60/126/61
f 60/126/61 62/128/63 64/69/65
f 64/69/65 4/73/5 8/77/9
f 8/77/9 12/79/13 16/65/17
f 24/92/25 28/94/29 32/66/33
f 32/66/33 36/103/37 48/67/49
f 36/103/37 40/107/41 48/67/49
f 56/122/57 60/126/61 48/67/49
f 60/126/61 64/69/65 48/67/49
f 64/69/65 8/77/9 16/65/17
f 16/65/17 24/92/25 32/66/33
f 64/69/65 16/65/17 48/67/49
