# Blender v3.2.1 OBJ File: ''
# www.blender.org
o Cylinder
v 0.000000 -0.500000 1.000000
v 0.000000 0.500000 1.000000
v -0.098017 -0.500000 0.995185
v -0.098017 0.500000 0.995185
v -0.195090 -0.500000 0.980785
v -0.195090 0.500000 0.980785
v -0.290285 -0.500000 0.956940
v -0.290285 0.500000 0.956940
v -0.382683 -0.500000 0.923880
v -0.382683 0.500000 0.923880
v -0.471397 -0.500000 0.881921
v -0.471397 0.500000 0.881921
v -0.555570 -0.500000 0.831470
v -0.555570 0.500000 0.831470
v -0.634393 -0.500000 0.773010
v -0.634393 0.500000 0.773010
v -0.707107 -0.500000 0.707107
v -0.707107 0.500000 0.707107
v -0.773010 -0.500000 0.634393
v -0.773010 0.500000 0.634393
v -0.831470 -0.500000 0.555570
v -0.831470 0.500000 0.555570
v -0.881921 -0.500000 0.471397
v -0.881921 0.500000 0.471397
v -0.923880 -0.500000 0.382683
v -0.923880 0.500000 0.382683
v -0.956940 -0.500000 0.290285
v -0.956940 0.500000 0.290285
v -0.980785 -0.500000 0.195090
v -0.980785 0.500000 0.195090
v -0.995185 -0.500000 0.098017
v -0.995185 0.500000 0.098017
v -1.000000 -0.500000 -0.000000
v -1.000000 0.500000 -0.000000
v -0.995185 -0.500000 -0.098017
v -0.995185 0.500000 -0.098017
v -0.980785 -0.500000 -0.195090
v -0.980785 0.500000 -0.195090
v -0.956940 -0.500000 -0.290285
v -0.956940 0.500000 -0.290285
v -0.923880 -0.500000 -0.382683
v -0.923880 0.500000 -0.382683
v -0.881921 -0.500000 -0.471397
v -0.881921 0.500000 -0.471397
v -0.831470 -0.500000 -0.555570
v -0.831470 0.500000 -0.555570
v -0.773010 -0.500000 -0.634393
v -0.773010 0.500000 -0.634393
v -0.707107 -0.500000 -0.707107
v -0.707107 0.500000 -0.707107
v -0.634393 -0.500000 -0.773010
v -0.634393 0.500000 -0.773010
v -0.555570 -0.500000 -0.831470
v -0.555570 0.500000 -0.831470
v -0.471397 -0.500000 -0.881921
v -0.471397 0.500000 -0.881921
v -0.382683 -0.500000 -0.923880
v -0.382683 0.500000 -0.923880
v -0.290285 -0.500000 -0.956940
v -0.290285 0.500000 -0.956940
v -0.195090 -0.500000 -0.980785
v -0.195090 0.500000 -0.980785
v -0.098017 -0.500000 -0.995185
v -0.098017 0.500000 -0.995185
v 0.000000 -0.500000 -1.000000
v 0.000000 0.500000 -1.000000
v 0.098017 -0.500000 -0.995185
v 0.098017 0.500000 -0.995185
v 0.195090 -0.500000 -0.980785
v 0.195090 0.500000 -0.980785
v 0.290285 -0.500000 -0.956940
v 0.290285 0.500000 -0.956940
v 0.382683 -0.500000 -0.923880
v 0.382683 0.500000 -0.923880
v 0.471397 -0.500000 -0.881921
v 0.471397 0.500000 -0.881921
v 0.555570 -0.500000 -0.831470
v 0.555570 0.500000 -0.831470
v 0.634393 -0.500000 -0.773011
v 0.634393 0.500000 -0.773011
v 0.707107 -0.500000 -0.707107
v 0.707107 0.500000 -0.707107
v 0.773010 -0.500000 -0.634393
v 0.773010 0.500000 -0.634393
v 0.831469 -0.500000 -0.555570
v 0.831469 0.500000 -0.555570
v 0.881921 -0.500000 -0.471397
v 0.881921 0.500000 -0.471397
v 0.923880 -0.500000 -0.382684
v 0.923880 0.500000 -0.382684
v 0.956940 -0.500000 -0.290285
v 0.956940 0.500000 -0.290285
v 0.980785 -0.500000 -0.195090
v 0.980785 0.500000 -0.195090
v 0.995185 -0.500000 -0.098017
v 0.995185 0.500000 -0.098017
v 1.000000 -0.500000 0.000000
v 1.000000 0.500000 0.000000
v 0.995185 -0.500000 0.098017
v 0.995185 0.500000 0.098017
v 0.980785 -0.500000 0.195090
v 0.980785 0.500000 0.195090
v 0.956940 -0.500000 0.290285
v 0.956940 0.500000 0.290285
v 0.923879 -0.500000 0.382684
v 0.923879 0.500000 0.382684
v 0.881921 -0.500000 0.471397
v 0.881921 0.500000 0.471397
v 0.831470 -0.500000 0.555570
v 0.831470 0.500000 0.555570
v 0.773010 -0.500000 0.634393
v 0.773010 0.500000 0.634393
v 0.707107 -0.500000 0.707107
v 0.707107 0.500000 0.707107
v 0.634393 -0.500000 0.773011
v 0.634393 0.500000 0.773011
v 0.555570 -0.500000 0.831470
v 0.555570 0.500000 0.831470
v 0.471397 -0.500000 0.881921
v 0.471397 0.500000 0.881921
v 0.382683 -0.500000 0.923880
v 0.382683 0.500000 0.923880
v 0.290285 -0.500000 0.956940
v 0.290285 0.500000 0.956940
v 0.195090 -0.500000 0.980785
v 0.195090 0.500000 0.980785
v 0.098017 -0.500000 0.995185
v 0.098017 0.500000 0.995185
vt 1.000000 1.000000
vt 0.984375 0.500000
vt 1.000000 0.500000
vt 0.984375 1.000000
vt 0.968750 0.500000
vt 0.968750 1.000000
vt 0.953125 0.500000
vt 0.953125 1.000000
vt 0.937500 0.500000
vt 0.937500 1.000000
vt 0.921875 0.500000
vt 0.921875 1.000000
vt 0.906250 0.500000
vt 0.906250 1.000000
vt 0.890625 0.500000
vt 0.890625 1.000000
vt 0.875000 0.500000
vt 0.875000 1.000000
vt 0.859375 0.500000
vt 0.859375 1.000000
vt 0.843750 0.500000
vt 0.843750 1.000000
vt 0.828125 0.500000
vt 0.828125 1.000000
vt 0.812500 0.500000
vt 0.812500 1.000000
vt 0.796875 0.500000
vt 0.796875 1.000000
vt 0.781250 0.500000
vt 0.781250 1.000000
vt 0.765625 0.500000
vt 0.765625 1.000000
vt 0.750000 0.500000
vt 0.750000 1.000000
vt 0.734375 0.500000
vt 0.734375 1.000000
vt 0.718750 0.500000
vt 0.718750 1.000000
vt 0.703125 0.500000
vt 0.703125 1.000000
vt 0.687500 0.500000
vt 0.687500 1.000000
vt 0.671875 0.500000
vt 0.671875 1.000000
vt 0.656250 0.500000
vt 0.656250 1.000000
vt 0.640625 0.500000
vt 0.640625 1.000000
vt 0.625000 0.500000
vt 0.625000 1.000000
vt 0.609375 0.500000
vt 0.609375 1.000000
vt 0.593750 0.500000
vt 0.593750 1.000000
vt 0.578125 0.500000
vt 0.578125 1.000000
vt 0.562500 0.500000
vt 0.562500 1.000000
vt 0.546875 0.500000
vt 0.546875 1.000000
vt 0.531250 0.500000
vt 0.531250 1.000000
vt 0.515625 0.500000
vt 0.515625 1.000000
vt 0.500000 0.500000
vt 0.500000 1.000000
vt 0.484375 0.500000
vt 0.484375 1.000000
vt 0.468750 0.500000
vt 0.468750 1.000000
vt 0.453125 0.500000
vt 0.453125 1.000000
vt 0.437500 0.500000
vt 0.437500 1.000000
vt 0.421875 0.500000
vt 0.421875 1.000000
vt 0.406250 0.500000
vt 0.406250 1.000000
vt 0.390625 0.500000
vt 0.390625 1.000000
vt 0.375000 0.500000
vt 0.375000 1.000000
vt 0.359375 0.500000
vt 0.359375 1.000000
vt 0.343750 0.500000
vt 0.343750 1.000000
vt 0.328125 0.500000
vt 0.328125 1.000000
vt 0.312500 0.500000
vt 0.312500 1.000000
vt 0.296875 0.500000
vt 0.296875 1.000000
vt 0.281250 0.500000
vt 0.281250 1.000000
vt 0.265625 0.500000
vt 0.265625 1.000000
vt 0.250000 0.500000
vt 0.250000 1.000000
vt 0.234375 0.500000
vt 0.234375 1.000000
vt 0.218750 0.500000
vt 0.218750 1.000000
vt 0.203125 0.500000
vt 0.203125 1.000000
vt 0.187500 0.500000
vt 0.187500 1.000000
vt 0.171875 0.500000
vt 0.171875 1.000000
vt 0.156250 0.500000
vt 0.156250 1.000000
vt 0.140625 0.500000
vt 0.140625 1.000000
vt 0.125000 0.500000
vt 0.125000 1.000000
vt 0.109375 0.500000
vt 0.109375 1.000000
vt 0.093750 0.500000
vt 0.093750 1.000000
vt 0.078125 0.500000
vt 0.078125 1.000000
vt 0.062500 0.500000
vt 0.062500 1.000000
vt 0.046875 0.500000
vt 0.046875 1.000000
vt 0.031250 0.500000
vt 0.203178 0.014612
vt 0.485388 0.203178
vt 0.296822 0.485388
vt 0.031250 1.000000
vt 0.015625 0.500000
vt 0.015625 1.000000
vt 0.000000 0.500000
vt 0.988844 0.273524
vt 0.773524 0.011156
vt 0.511156 0.226476
vt 0.273524 0.488844
vt 0.250000 0.490000
vt 0.226476 0.488844
vt 0.203178 0.485388
vt 0.180332 0.479666
vt 0.158156 0.471731
vt 0.136865 0.461661
vt 0.116663 0.449553
vt 0.097746 0.435523
vt 0.050447 0.383337
vt 0.080294 0.419706
vt 0.064478 0.402254
vt 0.038339 0.363135
vt 0.028269 0.341844
vt 0.020334 0.319668
vt 0.014612 0.296822
vt 0.011156 0.273524
vt 0.010000 0.250000
vt 0.011156 0.226476
vt 0.014612 0.203178
vt 0.020334 0.180332
vt 0.050447 0.116663
vt 0.028269 0.158156
vt 0.038339 0.136865
vt 0.064478 0.097746
vt 0.080294 0.080294
vt 0.097746 0.064477
vt 0.116663 0.050447
vt 0.136865 0.038339
vt 0.158156 0.028269
vt 0.180332 0.020334
vt 0.226476 0.011156
vt 0.250000 0.010000
vt 0.273524 0.011156
vt 0.296822 0.014612
vt 0.319668 0.020334
vt 0.341844 0.028269
vt 0.363135 0.038339
vt 0.383337 0.050447
vt 0.402254 0.064477
vt 0.419706 0.080294
vt 0.435522 0.097746
vt 0.449553 0.116663
vt 0.461661 0.136865
vt 0.471731 0.158156
vt 0.479666 0.180332
vt 0.488844 0.226476
vt 0.485388 0.296822
vt 0.490000 0.250000
vt 0.488844 0.273524
vt 0.479666 0.319668
vt 0.471731 0.341844
vt 0.461661 0.363135
vt 0.449553 0.383337
vt 0.435522 0.402254
vt 0.383337 0.449553
vt 0.419706 0.419706
vt 0.402254 0.435522
vt 0.363135 0.461661
vt 0.341844 0.471731
vt 0.319668 0.479666
vt 0.000000 1.000000
vt 0.726476 0.488844
vt 0.750000 0.490000
vt 0.773524 0.488844
vt 0.796822 0.485388
vt 0.819668 0.479666
vt 0.841844 0.471731
vt 0.863135 0.461661
vt 0.883337 0.449553
vt 0.902254 0.435522
vt 0.919706 0.419706
vt 0.961661 0.363135
vt 0.935522 0.402254
vt 0.949553 0.383337
vt 0.971731 0.341844
vt 0.979666 0.319668
vt 0.985388 0.296822
vt 0.990000 0.250000
vt 0.988844 0.226476
vt 0.985388 0.203178
vt 0.979666 0.180332
vt 0.971731 0.158156
vt 0.961661 0.136865
vt 0.949553 0.116663
vt 0.935522 0.097746
vt 0.919706 0.080294
vt 0.863135 0.038339
vt 0.902254 0.064477
vt 0.883337 0.050447
vt 0.841844 0.028269
vt 0.819668 0.020334
vt 0.796822 0.014612
vt 0.750000 0.010000
vt 0.726476 0.011156
vt 0.703178 0.014612
vt 0.680332 0.020334
vt 0.658156 0.028269
vt 0.636865 0.038339
vt 0.616663 0.050447
vt 0.597746 0.064477
vt 0.580294 0.080294
vt 0.538339 0.136865
vt 0.564478 0.097746
vt 0.550447 0.116663
vt 0.528269 0.158156
vt 0.520334 0.180332
vt 0.514612 0.203178
vt 0.510000 0.250000
vt 0.511156 0.273524
vt 0.514612 0.296822
vt 0.520334 0.319668
vt 0.528269 0.341844
vt 0.538339 0.363135
vt 0.550447 0.383337
vt 0.564478 0.402254
vt 0.580294 0.419706
vt 0.597746 0.435523
vt 0.616663 0.449553
vt 0.636865 0.461661
vt 0.658156 0.471731
vt 0.680332 0.479666
vt 0.703178 0.485388
vn 0.0000 0.6962 0.7178
vn -0.0704 -0.6962 0.7144
vn -0.0000 -0.6962 0.7178
vn -0.0704 0.6962 0.7144
vn -0.1400 -0.6962 0.7040
vn -0.1400 0.6962 0.7040
vn -0.2084 -0.6962 0.6869
vn -0.2084 0.6962 0.6869
vn -0.2747 -0.6962 0.6632
vn -0.2747 0.6962 0.6632
vn -0.3384 -0.6962 0.6331
vn -0.3384 0.6962 0.6331
vn -0.3988 -0.6962 0.5968
vn -0.3988 0.6962 0.5968
vn -0.4554 -0.6962 0.5549
vn -0.4554 0.6962 0.5549
vn -0.5076 -0.6962 0.5076
vn -0.5076 0.6962 0.5076
vn -0.5549 -0.6962 0.4554
vn -0.5549 0.6962 0.4554
vn -0.5968 -0.6962 0.3988
vn -0.5968 0.6962 0.3988
vn -0.6331 -0.6962 0.3384
vn -0.6331 0.6962 0.3384
vn -0.6632 -0.6962 0.2747
vn -0.6632 0.6962 0.2747
vn -0.6869 -0.6962 0.2084
vn -0.6869 0.6962 0.2084
vn -0.7040 -0.6962 0.1400
vn -0.7040 0.6962 0.1400
vn -0.7144 -0.6962 0.0704
vn -0.7144 0.6962 0.0704
vn -0.7178 -0.6962 -0.0000
vn -0.7178 0.6962 -0.0000
vn -0.7144 -0.6962 -0.0704
vn -0.7144 0.6962 -0.0704
vn -0.7040 -0.6962 -0.1400
vn -0.7040 0.6962 -0.1400
vn -0.6869 -0.6962 -0.2084
vn -0.6869 0.6962 -0.2084
vn -0.6632 -0.6962 -0.2747
vn -0.6632 0.6962 -0.2747
vn -0.6331 -0.6962 -0.3384
vn -0.6331 0.6962 -0.3384
vn -0.5968 -0.6962 -0.3988
vn -0.5968 0.6962 -0.3988
vn -0.5549 -0.6962 -0.4554
vn -0.5549 0.6962 -0.4554
vn -0.5076 -0.6962 -0.5076
vn -0.5076 0.6962 -0.5076
vn -0.4554 -0.6962 -0.5549
vn -0.4554 0.6962 -0.5549
vn -0.3988 -0.6962 -0.5968
vn -0.3988 0.6962 -0.5968
vn -0.3384 -0.6962 -0.6331
vn -0.3384 0.6962 -0.6331
vn -0.2747 -0.6962 -0.6632
vn -0.2747 0.6962 -0.6632
vn -0.2084 -0.6962 -0.6869
vn -0.2084 0.6962 -0.6869
vn -0.1400 -0.6962 -0.7040
vn -0.1400 0.6962 -0.7040
vn -0.0704 -0.6962 -0.7144
vn -0.0704 0.6962 -0.7144
vn 0.0000 -0.6962 -0.7178
vn -0.0000 0.6962 -0.7178
vn 0.0704 -0.6962 -0.7144
vn 0.0704 0.6962 -0.7144
vn 0.1400 -0.6962 -0.7040
vn 0.1400 0.6962 -0.7040
vn 0.2084 -0.6962 -0.6869
vn 0.2084 0.6962 -0.6869
vn 0.2747 -0.6962 -0.6632
vn 0.2747 0.6962 -0.6632
vn 0.3384 -0.6962 -0.6331
vn 0.3384 0.6962 -0.6331
vn 0.3988 -0.6962 -0.5968
vn 0.3988 0.6962 -0.5968
vn 0.4554 -0.6962 -0.5549
vn 0.4554 0.6962 -0.5549
vn 0.5076 -0.6962 -0.5076
vn 0.5076 0.6962 -0.5076
vn 0.5549 -0.6962 -0.4554
vn 0.5549 0.6962 -0.4554
vn 0.5968 -0.6962 -0.3988
vn 0.5968 0.6962 -0.3988
vn 0.6331 -0.6962 -0.3384
vn 0.6331 0.6962 -0.3384
vn 0.6632 -0.6962 -0.2747
vn 0.6632 0.6962 -0.2747
vn 0.6869 -0.6962 -0.2084
vn 0.6869 0.6962 -0.2084
vn 0.7040 -0.6962 -0.1400
vn 0.7040 0.6962 -0.1400
vn 0.7144 -0.6962 -0.0704
vn 0.7144 0.6962 -0.0704
vn 0.7178 -0.6962 -0.0000
vn 0.7178 0.6962 0.0000
vn 0.7144 -0.6962 0.0704
vn 0.7144 0.6962 0.0704
vn 0.7040 -0.6962 0.1400
vn 0.7040 0.6962 0.1400
vn 0.6869 -0.6962 0.2084
vn 0.6869 0.6962 0.2084
vn 0.6632 -0.6962 0.2747
vn 0.6632 0.6962 0.2747
vn 0.6331 -0.6962 0.3384
vn 0.6331 0.6962 0.3384
vn 0.5968 -0.6962 0.3988
vn 0.5968 0.6962 0.3988
vn 0.5549 -0.6962 0.4554
vn 0.5549 0.6962 0.4554
vn 0.5076 -0.6962 0.5076
vn 0.5076 0.6962 0.5076
vn 0.4554 -0.6962 0.5549
vn 0.4554 0.6962 0.5549
vn 0.3988 -0.6962 0.5968
vn 0.3988 0.6962 0.5968
vn 0.3384 -0.6962 0.6331
vn 0.3384 0.6962 0.6331
vn 0.2747 -0.6962 0.6632
vn 0.2747 0.6962 0.6632
vn 0.2084 -0.6962 0.6869
vn 0.2084 0.6962 0.6869
vn 0.1400 -0.6962 0.7040
vn 0.1400 0.6962 0.7040
vn 0.0704 -0.6962 0.7144
vn 0.0704 0.6962 0.7144
s 1
f 2/1/1 3/2/2 1/3/3
f 4/4/4 5/5/5 3/2/2
f 6/6/6 7/7/7 5/5/5
f 8/8/8 9/9/9 7/7/7
f 10/10/10 11/11/11 9/9/9
f 12/12/12 13/13/13 11/11/11
f 14/14/14 15/15/15 13/13/13
f 16/16/16 17/17/17 15/15/15
f 18/18/18 19/19/19 17/17/17
f 20/20/20 21/21/21 19/19/19
f 22/22/22 23/23/23 21/21/21
f 24/24/24 25/25/25 23/23/23
f 26/26/26 27/27/27 25/25/25
f 28/28/28 29/29/29 27/27/27
f 30/30/30 31/31/31 29/29/29
f 32/32/32 33/33/33 31/31/31
f 34/34/34 35/35/35 33/33/33
f 36/36/36 37/37/37 35/35/35
f 38/38/38 39/39/39 37/37/37
f 40/40/40 41/41/41 39/39/39
f 42/42/42 43/43/43 41/41/41
f 44/44/44 45/45/45 43/43/43
f 46/46/46 47/47/47 45/45/45
f 48/48/48 49/49/49 47/47/47
f 50/50/50 51/51/51 49/49/49
f 52/52/52 53/53/53 51/51/51
f 54/54/54 55/55/55 53/53/53
f 56/56/56 57/57/57 55/55/55
f 58/58/58 59/59/59 57/57/57
f 60/60/60 61/61/61 59/59/59
f 62/62/62 63/63/63 61/61/61
f 64/64/64 65/65/65 63/63/63
f 66/66/66 67/67/67 65/65/65
f 68/68/68 69/69/69 67/67/67
f 70/70/70 71/71/71 69/69/69
f 72/72/72 73/73/73 71/71/71
f 74/74/74 75/75/75 73/73/73
f 76/76/76 77/77/77 75/75/75
f 78/78/78 79/79/79 77/77/77
f 80/80/80 81/81/81 79/79/79
f 82/82/82 83/83/83 81/81/81
f 84/84/84 85/85/85 83/83/83
f 86/86/86 87/87/87 85/85/85
f 88/88/88 89/89/89 87/87/87
f 90/90/90 91/91/91 89/89/89
f 92/92/92 93/93/93 91/91/91
f 94/94/94 95/95/95 93/93/93
f 96/96/96 97/97/97 95/95/95
f 98/98/98 99/99/99 97/97/97
f 100/100/100 101/101/101 99/99/99
f 102/102/102 103/103/103 101/101/101
f 104/104/104 105/105/105 103/103/103
f 106/106/106 107/107/107 105/105/105
f 108/108/108 109/109/109 107/107/107
f 110/110/110 111/111/111 109/109/109
f 112/112/112 113/113/113 111/111/111
f 114/114/114 115/115/115 113/113/113
f 116/116/116 117/117/117 115/115/115
f 118/118/118 119/119/119 117/117/117
f 120/120/120 121/121/121 119/119/119
f 122/122/122 123/123/123 121/121/121
f 124/124/124 125/125/125 123/123/123
f 70/126/70 38/127/38 6/128/6
f 126/129/126 127/130/127 125/125/125
f 128/131/128 1/132/3 127/130/127
f 31/133/31 63/134/63 95/135/95
f 2/1/1 4/4/4 3/2/2
f 4/4/4 6/6/6 5/5/5
f 6/6/6 8/8/8 7/7/7
f 8/8/8 10/10/10 9/9/9
f 10/10/10 12/12/12 11/11/11
f 12/12/12 14/14/14 13/13/13
f 14/14/14 16/16/16 15/15/15
f 16/16/16 18/18/18 17/17/17
f 18/18/18 20/20/20 19/19/19
f 20/20/20 22/22/22 21/21/21
f 22/22/22 24/24/24 23/23/23
f 24/24/24 26/26/26 25/25/25
f 26/26/26 28/28/28 27/27/27
f 28/28/28 30/30/30 29/29/29
f 30/30/30 32/32/32 31/31/31
f 32/32/32 34/34/34 33/33/33
f 34/34/34 36/36/36 35/35/35
f 36/36/36 38/38/38 37/37/37
f 38/38/38 40/40/40 39/39/39
f 40/40/40 42/42/42 41/41/41
f 42/42/42 44/44/44 43/43/43
f 44/44/44 46/46/46 45/45/45
f 46/46/46 48/48/48 47/47/47
f 48/48/48 50/50/50 49/49/49
f 50/50/50 52/52/52 51/51/51
f 52/52/52 54/54/54 53/53/53
f 54/54/54 56/56/56 55/55/55
f 56/56/56 58/58/58 57/57/57
f 58/58/58 60/60/60 59/59/59
f 60/60/60 62/62/62 61/61/61
f 62/62/62 64/64/64 63/63/63
f 64/64/64 66/66/66 65/65/65
f 66/66/66 68/68/68 67/67/67
f 68/68/68 70/70/70 69/69/69
f 70/70/70 72/72/72 71/71/71
f 72/72/72 74/74/74 73/73/73
f 74/74/74 76/76/76 75/75/75
f 76/76/76 78/78/78 77/77/77
f 78/78/78 80/80/80 79/79/79
f 80/80/80 82/82/82 81/81/81
f 82/82/82 84/84/84 83/83/83
f 84/84/84 86/86/86 85/85/85
f 86/86/86 88/88/88 87/87/87
f 88/88/88 90/90/90 89/89/89
f 90/90/90 92/92/92 91/91/91
f 92/92/92 94/94/94 93/93/93
f 94/94/94 96/96/96 95/95/95
f 96/96/96 98/98/98 97/97/97
f 98/98/98 100/100/100 99/99/99
f 100/100/100 102/102/102 101/101/101
f 102/102/102 104/104/104 103/103/103
f 104/104/104 106/106/106 105/105/105
f 106/106/106 108/108/108 107/107/107
f 108/108/108 110/110/110 109/109/109
f 110/110/110 112/112/112 111/111/111
f 112/112/112 114/114/114 113/113/113
f 114/114/114 116/116/116 115/115/115
f 116/116/116 118/118/118 117/117/117
f 118/118/118 120/120/120 119/119/119
f 120/120/120 122/122/122 121/121/121
f 122/122/122 124/124/124 123/123/123
f 124/124/124 126/129/126 125/125/125
f 6/128/6 4/136/4 2/137/1
f 2/137/1 128/138/128 6/128/6
f 128/138/128 126/139/126 6/128/6
f 126/139/126 124/140/124 122/141/122
f 122/141/122 120/142/120 126/139/126
f 120/142/120 118/143/118 126/139/126
f 118/143/118 116/144/116 110/145/110
f 116/144/116 114/146/114 110/145/110
f 114/146/114 112/147/112 110/145/110
f 110/145/110 108/148/108 106/149/106
f 106/149/106 104/150/104 102/151/102
f 102/151/102 100/152/100 98/153/98
f 98/153/98 96/154/96 102/151/102
f 96/154/96 94/155/94 102/151/102
f 94/155/94 92/156/92 86/157/86
f 92/156/92 90/158/90 86/157/86
f 90/158/90 88/159/88 86/157/86
f 86/157/86 84/160/84 82/161/82
f 82/161/82 80/162/80 78/163/78
f 78/163/78 76/164/76 74/165/74
f 74/165/74 72/166/72 70/126/70
f 70/126/70 68/167/68 66/168/66
f 66/168/66 64/169/64 62/170/62
f 62/170/62 60/171/60 58/172/58
f 58/172/58 56/173/56 54/174/54
f 54/174/54 52/175/52 50/176/50
f 50/176/50 48/177/48 46/178/46
f 46/178/46 44/179/44 38/127/38
f 44/179/44 42/180/42 38/127/38
f 42/180/42 40/181/40 38/127/38
f 38/127/38 36/182/36 30/183/30
f 36/182/36 34/184/34 30/183/30
f 34/184/34 32/185/32 30/183/30
f 30/183/30 28/186/28 26/187/26
f 26/187/26 24/188/24 22/189/22
f 22/189/22 20/190/20 14/191/14
f 20/190/20 18/192/18 14/191/14
f 18/192/18 16/193/16 14/191/14
f 14/191/14 12/194/12 10/195/10
f 10/195/10 8/196/8 6/128/6
f 110/145/110 106/149/106 102/151/102
f 86/157/86 82/161/82 78/163/78
f 78/163/78 74/165/74 70/126/70
f 70/126/70 66/168/66 54/174/54
f 66/168/66 62/170/62 54/174/54
f 62/170/62 58/172/58 54/174/54
f 54/174/54 50/176/50 38/127/38
f 50/176/50 46/178/46 38/127/38
f 30/183/30 26/187/26 22/189/22
f 14/191/14 10/195/10 6/128/6
f 6/128/6 126/139/126 118/143/118
f 118/143/118 110/145/110 6/128/6
f 110/145/110 102/151/102 6/128/6
f 102/151/102 94/155/94 70/126/70
f 94/155/94 86/157/86 70/126/70
f 86/157/86 78/163/78 70/126/70
f 38/127/38 30/183/30 6/128/6
f 30/183/30 22/189/22 6/128/6
f 22/189/22 14/191/14 6/128/6
f 70/126/70 54/174/54 38/127/38
f 6/128/6 102/151/102 70/126/70
f 126/129/126 128/131/128 127/130/127
f 128/131/128 2/197/1 1/132/3
f 127/198/127 1/199/3 3/200/2
f 3/200/2 5/201/5 127/198/127
f 5/201/5 7/202/7 127/198/127
f 7/202/7 9/203/9 11/204/11
f 11/204/11 13/205/13 7/202/7
f 13/205/13 15/206/15 7/202/7
f 15/206/15 17/207/17 23/208/23
f 17/207/17 19/209/19 23/208/23
f 19/209/19 21/210/21 23/208/23
f 23/208/23 25/211/25 31/133/31
f 25/211/25 27/212/27 31/133/31
f 27/212/27 29/213/29 31/133/31
f 31/133/31 33/214/33 35/215/35
f 35/215/35 37/216/37 31/133/31
f 37/216/37 39/217/39 31/133/31
f 39/217/39 41/218/41 43/219/43
f 43/219/43 45/220/45 47/221/47
f 47/221/47 49/222/49 55/223/55
f 49/222/49 51/224/51 55/223/55
f 51/224/51 53/225/53 55/223/55
f 55/223/55 57/226/57 63/134/63
f 57/226/57 59/227/59 63/134/63
f 59/227/59 61/228/61 63/134/63
f 63/134/63 65/229/65 67/230/67
f 67/230/67 69/231/69 71/232/71
f 71/232/71 73/233/73 75/234/75
f 75/234/75 77/235/77 71/232/71
f 77/235/77 79/236/79 71/232/71
f 79/236/79 81/237/81 87/238/87
f 81/237/81 83/239/83 87/238/87
f 83/239/83 85/240/85 87/238/87
f 87/238/87 89/241/89 91/242/91
f 91/242/91 93/243/93 95/135/95
f 95/135/95 97/244/97 99/245/99
f 99/245/99 101/246/101 103/247/103
f 103/247/103 105/248/105 107/249/107
f 107/249/107 109/250/109 103/247/103
f 109/250/109 111/251/111 103/247/103
f 111/251/111 113/252/113 115/253/115
f 115/253/115 117/254/117 119/255/119
f 119/255/119 121/256/121 123/257/123
f 123/257/123 125/258/125 127/198/127
f 39/217/39 43/219/43 31/133/31
f 43/219/43 47/221/47 31/133/31
f 63/134/63 67/230/67 71/232/71
f 87/238/87 91/242/91 79/236/79
f 91/242/91 95/135/95 79/236/79
f 95/135/95 99/245/99 111/251/111
f 99/245/99 103/247/103 111/251/111
f 111/251/111 115/253/115 119/255/119
f 119/255/119 123/257/123 127/198/127
f 127/198/127 7/202/7 15/206/15
f 15/206/15 23/208/23 31/133/31
f 47/221/47 55/223/55 63/134/63
f 63/134/63 71/232/71 95/135/95
f 71/232/71 79/236/79 95/135/95
f 111/251/111 119/255/119 95/135/95
f 119/255/119 127/198/127 95/135/95
f 127/198/127 15/206/15 31/133/31
f 31/133/31 47/221/47 63/134/63
f 127/198/127 31/133/31 95/135/95
